<svg width="118" height="29" viewBox="0 0 118 29" fill="none" xmlns="http://www.w3.org/2000/svg">
<path d="M3.83337 16.9172C3.83337 16.9172 4.79171 15.9589 7.66671 15.9589C10.5417 15.9589 12.4584 17.8755 15.3334 17.8755C18.2084 17.8755 19.1667 16.9172 19.1667 16.9172V5.4172C19.1667 5.4172 18.2084 6.37553 15.3334 6.37553C12.4584 6.37553 10.5417 4.45886 7.66671 4.45886C4.79171 4.45886 3.83337 5.4172 3.83337 5.4172V16.9172Z" stroke="black" stroke-width="2" stroke-linecap="round" stroke-linejoin="round"/>
<path d="M3.83337 23.6098C3.83337 22.6512 3.83337 16.9172 3.83337 16.9172" stroke="black" stroke-width="2" stroke-linecap="square" stroke-linejoin="round"/>
<path d="M14.4096 10.4113C14.2536 12.642 11.2519 14.3534 11.2519 14.3534C11.2519 14.3534 8.51761 12.2409 8.6736 10.0102C8.72678 9.24957 9.07996 8.54121 9.65542 8.04097C10.2309 7.54073 10.9815 7.28957 11.7421 7.34276C12.5028 7.39595 13.2111 7.74912 13.7114 8.32459C14.2116 8.90005 14.4628 9.65067 14.4096 10.4113Z" stroke="black" stroke-width="0.75" stroke-linecap="round" stroke-linejoin="round"/>
<path d="M11.4748 11.1667C12.0027 11.2036 12.4607 10.8055 12.4976 10.2776C12.5345 9.74958 12.1364 9.29164 11.6085 9.25472C11.0805 9.2178 10.6225 9.61588 10.5856 10.1439C10.5487 10.6718 10.9468 11.1298 11.4748 11.1667Z" stroke="black" stroke-width="0.75" stroke-linecap="round" stroke-linejoin="round"/>
<path d="M24.5039 25.0422V8.10278C24.5039 7.08195 24.8685 6.20695 25.5977 5.47778C26.3268 4.74862 27.2064 4.38403 28.2363 4.38403C29.3027 4.38403 30.1823 4.7395 30.875 5.45044C31.6042 4.7395 32.4792 4.38403 33.5 4.38403C34.5938 4.38403 35.4824 4.7395 36.166 5.45044C36.8587 6.17049 37.2096 7.05916 37.2188 8.11646V24.0852L35.0312 25.0422L35.0449 8.17114C35.0449 7.71541 34.8945 7.32804 34.5938 7.00903C34.293 6.69002 33.9375 6.53052 33.5273 6.53052C33.099 6.53052 32.7344 6.69002 32.4336 7.00903C32.1237 7.33716 31.9688 7.71997 31.9688 8.15747V8.17114L31.9551 24.0852L29.7676 25.0422L29.7812 8.17114C29.7812 7.71541 29.6309 7.32804 29.3301 7.00903C29.0293 6.69002 28.6738 6.53052 28.2637 6.53052C27.8444 6.53052 27.4798 6.69002 27.1699 7.00903C26.86 7.32804 26.7051 7.71541 26.7051 8.17114L26.6914 24.0852L24.5039 25.0422ZM40.418 25.0422V10.468C40.418 8.79093 41.0195 7.35994 42.2227 6.17505C43.4258 4.98104 44.8796 4.38403 46.584 4.38403C48.2884 4.38403 49.7422 4.98104 50.9453 6.17505C52.1484 7.35994 52.75 8.79093 52.75 10.468V24.0852L50.5625 25.0422V15.8137H42.6055V24.0852L40.418 25.0422ZM42.6055 13.6262H50.5625V10.427C50.5534 9.33325 50.1615 8.40356 49.3867 7.63794C48.6029 6.8632 47.6686 6.47583 46.584 6.47583C45.4902 6.47583 44.5514 6.8632 43.7676 7.63794C42.9928 8.40356 42.6055 9.31958 42.6055 10.386V10.427V13.6262ZM58.3555 6.84497V14.802H62.4023C63.487 14.802 64.4167 14.4146 65.1914 13.6399C65.9661 12.8652 66.3535 11.9264 66.3535 10.8235C66.3535 9.73885 65.9661 8.80461 65.1914 8.02075C64.4167 7.2369 63.487 6.84497 62.4023 6.84497H58.3555ZM56.168 25.0422V5.34106L58.3555 4.65747H62.3613C64.0475 4.65747 65.4785 5.25903 66.6543 6.46216C67.8483 7.6744 68.4453 9.12817 68.4453 10.8235C68.4453 12.537 67.8529 13.9908 66.668 15.1848C65.474 16.3879 64.0384 16.9895 62.3613 16.9895H58.3555V24.0852L56.168 25.0422ZM74.0781 6.84497V14.802H78.125C79.2096 14.802 80.1393 14.4146 80.9141 13.6399C81.6888 12.8652 82.0762 11.9264 82.0762 10.8235C82.0762 9.73885 81.6888 8.80461 80.9141 8.02075C80.1393 7.2369 79.2096 6.84497 78.125 6.84497H74.0781ZM71.8906 25.0422V5.34106L74.0781 4.65747H78.084C79.7702 4.65747 81.2012 5.25903 82.377 6.46216C83.571 7.6744 84.168 9.12817 84.168 10.8235C84.168 12.537 83.5755 13.9908 82.3906 15.1848C81.1966 16.3879 79.7611 16.9895 78.084 16.9895H74.0781V24.0852L71.8906 25.0422ZM90.8672 15.8137V22.5813H100.602L99.6445 24.7688H88.6797V5.60083L90.8672 4.6438L98.8242 4.65747L97.8672 6.84497H90.8672V13.6262H98.8242L97.8672 15.8137H90.8672ZM105.482 6.74927V22.677H109.475H109.488C110.564 22.677 111.498 22.2896 112.291 21.5149C113.075 20.7493 113.467 19.8196 113.467 18.7258V10.6868C113.467 9.60213 113.075 8.67244 112.291 7.89771C111.507 7.12297 110.573 6.7356 109.488 6.7356H109.475L105.482 6.74927ZM109.475 24.7688H103.295V5.60083L105.482 4.6438H109.475H109.488C111.193 4.6438 112.646 5.2408 113.85 6.43481C115.053 7.61971 115.654 9.0507 115.654 10.7278V18.6848C115.654 20.3619 115.053 21.7974 113.85 22.9915C112.646 24.1764 111.193 24.7688 109.488 24.7688H109.475Z" fill="black"/>
</svg>
